<svg width="34" height="48" viewBox="0 0 34 48" fill="none" xmlns="http://www.w3.org/2000/svg">
<path d="M0.3125 8.98054C0.3125 4.02072 4.33323 0 9.29309 0H24.7026C29.6624 0 33.6832 4.02072 33.6832 8.98054C33.6832 12.1211 32.0711 14.8853 29.6291 16.4903C32.0711 18.0955 33.6832 20.8596 33.6832 24.0002C33.6832 28.96 29.6624 32.9808 24.7026 32.9808H24.5076C22.1824 32.9808 20.0636 32.0971 18.4687 30.6472V38.9219C18.4687 43.9478 14.3428 48 9.34147 48C4.39401 48 0.3125 43.9915 0.3125 39.0194C0.3125 35.879 1.92448 33.115 4.36617 31.5098C1.92448 29.9047 0.3125 27.1406 0.3125 24.0002C0.3125 20.8596 1.92462 18.0955 4.36648 16.4903C1.92462 14.8853 0.3125 12.1211 0.3125 8.98054ZM15.527 17.9613H9.29309C5.95786 17.9613 3.25417 20.665 3.25417 24.0002C3.25417 27.3225 5.93701 30.0182 9.25447 30.039C9.26731 30.0389 9.28015 30.0389 9.29309 30.0389H15.527V17.9613ZM18.4687 24.0002C18.4687 27.3353 21.1723 30.0391 24.5076 30.0391H24.7026C28.0378 30.0391 30.7415 27.3353 30.7415 24.0002C30.7415 20.665 28.0378 17.9613 24.7026 17.9613H24.5076C21.1723 17.9613 18.4687 20.665 18.4687 24.0002ZM9.29309 32.9808C9.28015 32.9808 9.26731 32.9807 9.25447 32.9807C5.93701 33.0014 3.25417 35.6971 3.25417 39.0194C3.25417 42.3424 5.99398 45.0583 9.34147 45.0583C12.7429 45.0583 15.527 42.2987 15.527 38.9219V32.9808H9.29309ZM9.29309 2.94167C5.95786 2.94167 3.25417 5.64537 3.25417 8.98054C3.25417 12.3158 5.95786 15.0194 9.29309 15.0194H15.527V2.94167H9.29309ZM18.4687 15.0194H24.7026C28.0378 15.0194 30.7415 12.3158 30.7415 8.98054C30.7415 5.64537 28.0378 2.94167 24.7026 2.94167H18.4687V15.0194Z" fill="#FFB91A"/>
</svg>
