<svg width="36" height="42" viewBox="0 0 36 42" fill="none" xmlns="http://www.w3.org/2000/svg">
<path d="M32.1429 0H3.85714C1.72768 0 0 2.01562 0 4.5V37.5C0 39.9844 1.72768 42 3.85714 42H32.1429C34.2723 42 36 39.9844 36 37.5V4.5C36 2.01562 34.2723 0 32.1429 0ZM22.283 35.9719C21.608 36.1125 21.3589 35.625 21.3589 35.2219C21.3589 34.7156 21.375 32.1281 21.375 30.0375C21.375 28.575 20.9571 27.6469 20.467 27.1594C23.4402 26.775 26.5741 26.2969 26.5741 20.3063C26.5741 18.6 26.0518 17.7469 25.2 16.65C25.3366 16.2469 25.7946 14.5875 25.0634 12.4313C23.9464 12.0281 21.3911 14.1094 21.3911 14.1094C20.3304 13.7625 19.1812 13.5844 18.0482 13.5844C16.9152 13.5844 15.7661 13.7625 14.7054 14.1094C14.7054 14.1094 12.15 12.0281 11.033 12.4313C10.3018 14.5781 10.7518 16.2375 10.8964 16.65C10.0446 17.7469 9.64286 18.6 9.64286 20.3063C9.64286 26.2688 12.6402 26.775 15.6134 27.1594C15.2277 27.5625 14.8821 28.2563 14.7616 29.25C13.9982 29.6531 12.0455 30.3469 10.8804 27.9469C10.1491 26.4656 8.83125 26.3438 8.83125 26.3438C7.52946 26.325 8.74286 27.3 8.74286 27.3C9.61071 27.7688 10.2214 29.5687 10.2214 29.5687C11.0009 32.3531 14.7295 31.4156 14.7295 31.4156C14.7295 32.7188 14.7455 34.8375 14.7455 35.2219C14.7455 35.625 14.5045 36.1125 13.8214 35.9719C8.51786 33.9 4.80536 28.0125 4.80536 21.1312C4.80536 12.525 10.4464 5.99063 17.8232 5.99063C25.2 5.99063 31.1786 12.525 31.1786 21.1312C31.1866 28.0125 27.5866 33.9094 22.283 35.9719ZM14.4 30.2438C14.2473 30.2812 14.1027 30.2062 14.0866 30.0844C14.0705 29.9437 14.175 29.8219 14.3277 29.7844C14.4804 29.7656 14.625 29.8406 14.6411 29.9625C14.6652 30.0844 14.5607 30.2063 14.4 30.2438ZM13.6366 30.1594C13.6366 30.2813 13.5161 30.3844 13.3554 30.3844C13.1786 30.4031 13.058 30.3 13.058 30.1594C13.058 30.0375 13.1786 29.9344 13.3393 29.9344C13.492 29.9156 13.6366 30.0188 13.6366 30.1594ZM12.5357 30.0563C12.5036 30.1781 12.3429 30.2344 12.2062 30.1781C12.0536 30.1406 11.9491 30 11.9813 29.8781C12.0134 29.7563 12.1741 29.7 12.3107 29.7375C12.4714 29.7938 12.5759 29.9344 12.5357 30.0563ZM11.5473 29.55C11.475 29.6531 11.3223 29.6344 11.2018 29.4938C11.0812 29.3719 11.0491 29.1938 11.1295 29.1094C11.2018 29.0063 11.3545 29.025 11.475 29.1656C11.5795 29.2875 11.6196 29.475 11.5473 29.55ZM10.8161 28.6969C10.7438 28.7531 10.6071 28.6969 10.5187 28.5563C10.4304 28.4156 10.4304 28.2563 10.5187 28.1906C10.6071 28.1063 10.7438 28.1719 10.8161 28.3125C10.9045 28.4531 10.9045 28.6219 10.8161 28.6969ZM10.2938 27.7875C10.2214 27.8719 10.1009 27.825 10.0125 27.7312C9.92411 27.6094 9.90804 27.4687 9.98036 27.4031C10.0527 27.3187 10.1732 27.3656 10.2616 27.4594C10.35 27.5812 10.3661 27.7219 10.2938 27.7875ZM9.75536 27.0938C9.72321 27.1781 9.61875 27.1969 9.53036 27.1312C9.42589 27.075 9.37768 26.9719 9.40982 26.8875C9.44196 26.8312 9.53036 26.8031 9.63482 26.85C9.73929 26.9156 9.7875 27.0187 9.75536 27.0938Z" fill="#FFB91A"/>
</svg>
