<svg width="24" height="18" viewBox="0 0 24 18" fill="currentColor" xmlns="http://www.w3.org/2000/svg">
<path fill-rule="evenodd" clip-rule="evenodd" d="M12 0C5.37 0 0 4.10793 0 9.17972C0 13.2417 3.435 16.6727 8.205 17.889C8.805 17.9693 9.03 17.6939 9.03 17.4529C9.03 17.2349 9.015 16.512 9.015 15.7432C6 16.1678 5.22 15.181 4.98 14.6646C4.845 14.4007 4.26 13.586 3.75 13.368C3.33 13.1959 2.73 12.7713 3.735 12.7598C4.68 12.7483 5.355 13.4253 5.58 13.7007C6.66 15.0892 8.385 14.699 9.075 14.4581C9.18 13.8614 9.495 13.4598 9.84 13.2303C7.17 13.0008 4.38 12.209 4.38 8.69779C4.38 7.69949 4.845 6.87332 5.61 6.23074C5.49 6.00124 5.07 5.06032 5.73 3.79811C5.73 3.79811 6.735 3.55714 9.03 4.73903C9.99 4.53249 11.01 4.42922 12.03 4.42922C13.05 4.42922 14.07 4.53249 15.03 4.73903C17.325 3.54567 18.33 3.79811 18.33 3.79811C18.99 5.06032 18.57 6.00124 18.45 6.23074C19.215 6.87332 19.68 7.68802 19.68 8.69779C19.68 12.2205 16.875 13.0008 14.205 13.2303C14.64 13.5171 15.015 14.0679 15.015 14.9285C15.015 16.1563 15 17.1431 15 17.4529C15 17.6939 15.225 17.9808 15.825 17.889C18.2072 17.2737 20.2772 16.1025 21.7437 14.5402C23.2101 12.9779 23.9993 11.1031 24 9.17972C24 4.10793 18.63 0 12 0Z" fill="#63657E" />
</svg>
