<svg width="42" height="42" viewBox="0 0 42 42" fill="none" xmlns="http://www.w3.org/2000/svg">
<path d="M11.2055 11.385C10.3816 11.6178 9.62718 12.0486 9.00794 12.6398C8.3887 13.2311 7.92344 13.9647 7.6527 14.7769L0 37.7342L1.20504 38.9393L13.5188 26.6255C13.2735 26.112 13.125 25.5444 13.125 24.9373C13.125 22.7627 14.8879 20.9998 17.0625 20.9998C19.2371 20.9998 21 22.7627 21 24.9373C21 27.112 19.2371 28.8748 17.0625 28.8748C16.4555 28.8748 15.8878 28.7264 15.3743 28.4811L3.06059 40.7948L4.26562 41.9998L27.2229 34.3471C28.0351 34.0764 28.7688 33.6111 29.36 32.9919C29.9512 32.3727 30.382 31.6182 30.6149 30.7944L34.125 18.3748L23.625 7.87484L11.2055 11.385ZM40.8466 6.0841L35.9157 1.1532C34.3777 -0.384888 31.8831 -0.384888 30.345 1.1532L25.7061 5.79207L36.2078 16.2937L40.8466 11.6548C42.3847 10.1168 42.3847 7.623 40.8466 6.0841Z" fill="#FFB91A"/>
</svg>
