<svg width="528" height="354" viewBox="0 0 528 354" fill="none" xmlns="http://www.w3.org/2000/svg">
<rect width="345" height="354" rx="15" fill="#FFB91A"/>
<path d="M211.095 310.861L211.249 310.25C211.282 310.116 214.739 296.756 225.172 289.502C235.606 282.247 249.313 283.673 249.45 283.689L250.075 283.758L249.921 284.368C249.888 284.502 246.431 297.862 235.998 305.117C225.564 312.371 211.857 310.945 211.72 310.93L211.095 310.861ZM225.797 290.404C216.976 296.538 213.302 307.202 212.491 309.89C215.29 310.067 226.56 310.342 235.372 304.214C244.184 298.087 247.866 287.418 248.679 284.729C245.878 284.551 234.61 284.277 225.797 290.404Z" fill="#F1F1F1"/>
<path d="M229.586 293.646C224.324 305.159 211.927 310.765 211.927 310.765C211.927 310.765 208.061 297.705 213.323 286.192C218.585 274.679 230.982 269.073 230.982 269.073C230.982 269.073 234.848 282.133 229.586 293.646Z" fill="#F1F1F1"/>
<path d="M96.0086 306.698C90.3344 289.222 89.8698 269.361 99.4594 253.148C103.536 246.255 109.265 240.304 116.293 236.413C124.399 231.925 133.756 230.458 142.91 230.255C162.815 229.816 182.584 234.63 202.491 232.141C211.422 231.025 220.331 228.519 227.987 223.66C234.606 219.459 240.352 213.581 243.743 206.451C247.046 199.648 247.794 191.88 245.849 184.57C243.967 177.656 239.539 171.191 233.064 167.881C227.181 164.873 219.959 164.793 213.88 167.281C207.34 169.957 202.631 175.492 201.63 182.577C200.38 191.415 204.354 200.159 208.777 207.557C213.035 214.677 218.197 221.36 224.469 226.819C230.544 232.106 237.707 236.274 245.587 238.126C253.062 239.883 261.125 239.727 268.391 237.132C275.888 234.447 282.137 229.094 285.948 222.093C290.202 214.388 291.687 205.486 291.541 196.764C291.368 186.464 289.198 176.267 287.26 166.187C285.295 155.965 283.183 145.772 280.924 135.609C279.823 130.655 278.688 125.709 277.518 120.771C277.274 119.74 275.687 120.176 275.932 121.209C280.585 140.863 284.936 160.674 288.237 180.606C289.804 190.068 290.786 199.881 288.821 209.362C287.164 217.356 283.445 225.107 277.086 230.396C264.95 240.49 246.848 239.212 233.859 231.595C226.854 227.487 220.911 221.734 215.991 215.305C210.905 208.659 206.168 201.059 204.021 192.901C202.913 188.688 202.597 184.192 203.877 179.979C204.866 176.738 206.804 173.871 209.441 171.748C214.381 167.735 221.363 166.294 227.536 167.646C234.491 169.169 239.871 174.411 242.758 180.786C245.756 187.522 246.106 195.143 243.738 202.126C241.248 209.496 236.083 215.796 229.875 220.377C222.808 225.592 214.386 228.551 205.785 230.008C186.489 233.279 167.106 229.002 147.774 228.609C138.964 228.43 129.934 229.109 121.608 232.193C114.19 234.96 107.639 239.65 102.624 245.783C91.6227 259.148 88.5773 276.884 91.1814 293.697C91.901 298.256 92.9849 302.75 94.4226 307.136C94.7485 308.14 96.3372 307.71 96.0086 306.698L96.0086 306.698Z" fill="#E5E5E5"/>
<path d="M99.8174 302.724H89.4007V310.959H99.8174V302.724Z" fill="#6C63FF"/>
<path d="M276.832 120.972H462.627C497.823 120.972 526.355 100.883 526.355 65.6353V65.6351C526.355 30.3878 497.823 15.6967 462.627 15.6967H404.289C333.896 15.6967 276.832 50.4776 276.832 120.972V120.972Z" fill="white"/>
<path d="M462.627 122.619H275.187V120.972C275.187 87.2439 288.321 59.4469 313.17 40.5864C336.042 23.2261 367.55 14.0497 404.289 14.0497H462.627C481.472 14.0497 497.38 18.216 508.632 26.0986C521.484 35.101 528 48.403 528 65.6352C528 82.9116 521.336 97.4911 508.73 107.797C497.038 117.356 480.665 122.619 462.627 122.619ZM278.487 119.325H462.627C499.761 119.325 524.71 97.7489 524.71 65.6352C524.71 22.0494 481.294 17.3439 462.627 17.3439H404.289C343.905 17.3439 279.413 44.1726 278.487 119.325H278.487Z" fill="#E5E5E5"/>
<path d="M383.847 48.5961H361.902V53.8868H383.847V48.5961Z" fill="#6C63FF"/>
<path d="M459.842 48.5961H452.12V53.8868H459.842V48.5961Z" fill="#6C63FF"/>
<path d="M475.284 48.5961H467.563V53.8868H475.284V48.5961Z" fill="#6C63FF"/>
<path d="M443.992 48.5961H391.568V53.8868H443.992V48.5961Z" fill="#6C63FF"/>
<path d="M356.212 82.7823H334.267V88.0731H356.212V82.7823Z" fill="#6C63FF"/>
<path d="M432.207 82.7823H424.486V88.0731H432.207V82.7823Z" fill="#6C63FF"/>
<path d="M447.65 82.7823H439.929V88.0731H447.65V82.7823Z" fill="#6C63FF"/>
<path d="M416.358 82.7823H363.934V88.0731H416.358V82.7823Z" fill="#6C63FF"/>
<path d="M446.837 60.3985H424.892V65.6892H446.837V60.3985Z" fill="#6C63FF"/>
<path d="M476.504 60.3985H454.559V65.6892H476.504V60.3985Z" fill="#6C63FF"/>
<path d="M491.946 60.3985H484.225V65.6892H491.946V60.3985Z" fill="#6C63FF"/>
<path d="M357.431 60.3985H349.71V65.6892H357.431V60.3985Z" fill="#6C63FF"/>
<path d="M417.577 60.3985H365.153V65.6892H417.577V60.3985Z" fill="#6C63FF"/>
<path d="M401.322 71.7939H379.376V77.0846H401.322V71.7939Z" fill="#6C63FF"/>
<path d="M371.655 71.7939H349.71V77.0846H371.655V71.7939Z" fill="#6C63FF"/>
<path d="M491.946 71.7939H484.225V77.0846H491.946V71.7939Z" fill="#6C63FF"/>
<path d="M476.504 71.7939H468.782V77.0846H476.504V71.7939Z" fill="#6C63FF"/>
<path d="M461.061 71.7939H408.637V77.0846H461.061V71.7939Z" fill="#6C63FF"/>
<path d="M249.431 311.508H40.5482C40.4028 311.508 40.2634 311.45 40.1606 311.347C40.0578 311.244 40 311.105 40 310.959C40 310.814 40.0578 310.674 40.1606 310.571C40.2634 310.468 40.4028 310.41 40.5482 310.41H249.431C249.577 310.41 249.716 310.468 249.819 310.571C249.922 310.674 249.979 310.814 249.979 310.959C249.979 311.105 249.922 311.244 249.819 311.347C249.716 311.45 249.577 311.508 249.431 311.508Z" fill="#CBCBCB"/>
<path d="M166.646 345H102.5C102.355 345 102.216 344.942 102.113 344.839C102.01 344.736 101.952 344.597 101.952 344.451C101.952 344.305 102.01 344.166 102.113 344.063C102.216 343.96 102.355 343.902 102.5 343.902H166.646C166.791 343.902 166.93 343.96 167.033 344.063C167.136 344.166 167.194 344.305 167.194 344.451C167.194 344.597 167.136 344.736 167.033 344.839C166.93 344.942 166.791 345 166.646 345Z" fill="#CBCBCB"/>
<path d="M106.021 194.296C106.696 193.424 107.172 192.414 107.415 191.338C107.659 190.261 107.663 189.145 107.429 188.066C107.195 186.988 106.727 185.974 106.059 185.096C105.391 184.218 104.539 183.498 103.563 182.985L107.537 156.455L94.9078 162.319L93.0705 186.613C92.3195 188.312 92.217 190.228 92.7824 191.998C93.3477 193.768 94.5417 195.268 96.138 196.215C97.7343 197.162 99.6221 197.49 101.444 197.136C103.265 196.783 104.894 195.772 106.021 194.296V194.296Z" fill="#FFB7B7"/>
<path d="M144.206 335.179L135.116 335.179L130.792 300.067L144.207 300.067L144.206 335.179Z" fill="#FFB7B7"/>
<path d="M146.524 344.003L117.214 344.002V343.631C117.215 340.601 118.417 337.695 120.556 335.553C122.695 333.41 125.597 332.207 128.622 332.206H128.623L146.525 332.207L146.524 344.003Z" fill="#2F2E41"/>
<path d="M176.696 314.24L168.206 317.514L151.556 286.282L164.084 281.45L176.696 314.24Z" fill="#FFB7B7"/>
<path d="M182.03 321.645L154.658 332.203L154.525 331.856C153.437 329.027 153.516 325.88 154.744 323.109C155.972 320.337 158.25 318.168 161.075 317.078L161.076 317.077L177.793 310.629L182.03 321.645Z" fill="#2F2E41"/>
<path d="M117.788 173.68L115.219 188.519L156.315 313.703L178.255 306.996L162.578 260.823L146.737 192.36L146.394 167.957L117.788 173.68Z" fill="#2F2E41"/>
<path d="M126.827 328.518L134.228 277.833L133.034 268.268L146.394 238.906L144.854 169.313L173.987 173.68L162.578 263.318L147.721 315.963L144.736 327.322L126.827 328.518Z" fill="#2F2E41"/>
<path d="M131.304 53.218C140.535 53.218 148.019 45.7236 148.019 36.4788C148.019 27.2341 140.535 19.7397 131.304 19.7397C122.073 19.7397 114.589 27.2341 114.589 36.4788C114.589 45.7236 122.073 53.218 131.304 53.218Z" fill="#FFB8B8"/>
<path d="M147.802 18.6678C145.135 14.3307 140.96 11.1347 136.081 9.69492L132.498 12.5658L133.891 9.21724C132.72 9.03826 131.534 8.96963 130.349 9.01225L127.125 13.1636L128.46 9.15445C125.662 9.50262 122.967 10.4275 120.544 11.8709C118.121 13.3142 116.023 15.2446 114.382 17.5404C110.279 23.4659 110.553 31.7027 114.589 37.6745C115.697 34.2648 116.075 31.069 117.183 27.6593C118.053 27.7781 118.936 27.7824 119.808 27.6721L121.156 24.5223L121.532 27.5388C125.71 27.1743 131.907 26.374 135.868 25.6407L135.483 23.3266L137.787 25.2497C139.001 24.9699 139.721 24.7162 139.661 24.5223C142.607 29.2781 145.526 32.3157 148.472 37.0715C149.59 30.3633 151.564 24.7872 147.802 18.6678Z" fill="#2F2E41"/>
<path d="M163.777 57.5336C163.777 57.5336 131.946 54.6998 118.013 66.2797L113.694 170.093L116.076 178.194C116.076 178.194 127.47 180.472 141.296 176.544C155.121 172.615 173.987 178.194 173.987 178.194L176.015 114.626L163.777 57.5336Z" fill="#CBCBCB"/>
<path d="M116.916 172.018L126.85 71.0247L124.975 62.3162C124.975 62.3162 105.81 67.7366 98.8267 78.0292L111.431 165.547V173.68L116.916 172.018Z" fill="#3F3D56"/>
<path d="M161.451 165.311C161.451 165.311 134.799 74.7751 144.363 58.2331C144.363 58.2331 163.601 52.8004 172.793 59.5012L177.884 115.107C177.884 115.107 188.098 146.901 180.266 154.377L181.985 161.854C181.985 161.854 171.535 162.471 169.298 162.761C167.061 163.05 161.451 165.311 161.451 165.311Z" fill="#3F3D56"/>
<path d="M104.768 77.43L98.8267 78.0292C98.8267 78.0292 96.6909 79.1908 96.9535 84.3541C97.2161 89.5173 90.7884 165.18 94.0023 170.093L92.1419 176.501L105.275 180.088L106.055 173.68C106.055 173.68 111.375 157.118 112.056 152.91C112.737 148.702 104.768 77.43 104.768 77.43Z" fill="#3F3D56"/>
<path d="M169.977 164.052C169.952 162.949 170.17 161.853 170.614 160.843C171.058 159.833 171.717 158.933 172.546 158.205C173.375 157.478 174.353 156.942 175.412 156.634C176.47 156.327 177.583 156.255 178.672 156.425L191.24 132.734L197.907 144.971L184.95 165.593C184.544 167.406 183.489 169.007 181.983 170.092C180.477 171.178 178.626 171.673 176.78 171.483C174.934 171.293 173.222 170.431 171.969 169.062C170.715 167.692 170.006 165.91 169.977 164.052Z" fill="#FFB7B7"/>
<path d="M165.119 62.4386L172.196 59.5012C172.196 59.5012 183.719 65.7737 184.643 71.9661C185.566 78.1586 208.371 118.247 208.371 118.247C208.371 118.247 200.217 153.936 192.892 156.102L188.911 160.501L177.912 153.404L181.475 149.835C181.475 149.835 181.382 130.955 184.668 127.573C184.668 127.573 175.418 103.865 171.239 101.474C167.061 99.0825 165.119 62.4386 165.119 62.4386Z" fill="#3F3D56"/>
</svg>
