<svg width="45" height="49" viewBox="0 0 45 49" fill="none" xmlns="http://www.w3.org/2000/svg">
<path d="M39.7474 0.456665H4.76969C2.13642 0.456665 0 2.77908 0 5.64159V43.6644C0 46.5269 2.13642 48.8493 4.76969 48.8493H39.7474C42.3807 48.8493 44.5171 46.5269 44.5171 43.6644V5.64159C44.5171 2.77908 42.3807 0.456665 39.7474 0.456665ZM24.226 38.1986C24.226 42.9082 21.6822 45.0578 17.9758 45.0578C14.627 45.0578 12.6894 43.1783 11.6957 40.8991L15.104 38.6631C15.7598 39.9269 16.3561 40.9963 17.7969 40.9963C19.1682 40.9963 20.0426 40.413 20.0426 38.1338V22.6762H24.226V38.1986ZM34.1231 45.0578C30.2378 45.0578 27.7238 43.0487 26.5016 40.413L29.9099 38.2742C30.8042 39.8621 31.9768 41.0395 34.0337 41.0395C35.7627 41.0395 36.8757 40.0997 36.8757 38.7927C36.8757 37.2372 35.7429 36.6863 33.825 35.7682L32.7817 35.2821C29.7609 33.8886 27.7636 32.1279 27.7636 28.4229C27.7636 25.0094 30.1583 22.417 33.8847 22.417C36.5477 22.417 38.4556 23.4216 39.8269 26.0572L36.5676 28.3256C35.8522 26.9322 35.0771 26.3813 33.8747 26.3813C32.6525 26.3813 31.8774 27.2238 31.8774 28.3256C31.8774 29.6867 32.6525 30.2376 34.4511 31.0909L35.4944 31.577C39.0518 33.2297 41.0491 34.9256 41.0491 38.7279C41.0491 42.811 38.0879 45.0578 34.1231 45.0578Z" fill="#FFB91A"/>
</svg>
