<svg width="46" height="42" viewBox="0 0 46 42" fill="none" xmlns="http://www.w3.org/2000/svg">
<path d="M40.2986 0H5.3209C2.68763 0 0.551208 2.01562 0.551208 4.5V37.5C0.551208 39.9844 2.68763 42 5.3209 42H40.2986C42.9319 42 45.0683 39.9844 45.0683 37.5V4.5C45.0683 2.01562 42.9319 0 40.2986 0ZM24.7772 32.7562C24.7772 36.8438 22.2334 38.7094 18.527 38.7094C15.1782 38.7094 13.2406 37.0781 12.2469 35.1L15.6552 33.1594C16.311 34.2563 16.9073 35.1844 18.3481 35.1844C19.7194 35.1844 20.5938 34.6781 20.5938 32.7V19.2844H24.7772V32.7562ZM34.6743 38.7094C30.789 38.7094 28.275 36.9656 27.0528 34.6781L30.4611 32.8219C31.3554 34.2 32.528 35.2219 34.5849 35.2219C36.3139 35.2219 37.4268 34.4062 37.4268 33.2719C37.4268 31.9219 36.294 31.4437 34.3762 30.6469L33.3329 30.225C30.3121 29.0156 28.3148 27.4875 28.3148 24.2719C28.3148 21.3094 30.7095 19.0594 34.4359 19.0594C37.0989 19.0594 39.0068 19.9312 40.3781 22.2188L37.1188 24.1875C36.4034 22.9781 35.6283 22.5 34.4259 22.5C33.2037 22.5 32.4286 23.2313 32.4286 24.1875C32.4286 25.3687 33.2037 25.8469 35.0023 26.5875L36.0456 27.0094C39.603 28.4438 41.6003 29.9156 41.6003 33.2156C41.6003 36.7594 38.6391 38.7094 34.6743 38.7094Z" fill="#20212A"/>
</svg>
