<svg width="24" height="19" viewBox="0 0 24 19" fill="none" xmlns="http://www.w3.org/2000/svg">
<path d="M5.37276 18.3594H0.396871V6.10189H5.37276V18.3594ZM2.88182 4.42987C1.2909 4.42987 0 3.42141 0 2.20445C0 1.61979 0.303619 1.05908 0.844065 0.645667C1.38451 0.232253 2.11751 0 2.88182 0C3.64612 0 4.37912 0.232253 4.91957 0.645667C5.46002 1.05908 5.76363 1.61979 5.76363 2.20445C5.76363 3.42141 4.47273 4.42987 2.88182 4.42987ZM23.9957 18.3594H19.031V12.3926C19.031 10.9704 18.9932 9.14694 16.444 9.14694C13.8571 9.14694 13.4602 10.6918 13.4602 12.2903V18.3594H8.48945V6.10189H13.2613V7.77391H13.3308C13.9951 6.8107 15.6177 5.79437 18.0384 5.79437C23.0743 5.79437 24 8.33125 24 11.6261V18.3594H23.9957Z" fill="#63657E"/>
</svg>
