<svg width="48" height="48" viewBox="0 0 48 48" fill="none" xmlns="http://www.w3.org/2000/svg">
<path fill-rule="evenodd" clip-rule="evenodd" d="M48 0H0V48H48V0ZM16 36V17.524L22.464 25.28C22.6517 25.5051 22.8866 25.6862 23.152 25.8104C23.4174 25.9347 23.7069 25.9991 24 25.9991C24.2931 25.9991 24.5826 25.9347 24.848 25.8104C25.1134 25.6862 25.3483 25.5051 25.536 25.28L32 17.524V36C32 36.5304 32.2107 37.0391 32.5858 37.4142C32.9609 37.7893 33.4696 38 34 38C34.5304 38 35.0391 37.7893 35.4142 37.4142C35.7893 37.0391 36 36.5304 36 36V12C35.9998 11.5891 35.8731 11.1883 35.637 10.8519C35.401 10.5156 35.0671 10.2602 34.6808 10.1203C34.2944 9.98047 33.8744 9.963 33.4777 10.0703C33.0811 10.1776 32.7271 10.4044 32.464 10.72L24 20.876L15.536 10.72C15.2729 10.4044 14.9189 10.1776 14.5223 10.0703C14.1256 9.963 13.7056 9.98047 13.3192 10.1203C12.9329 10.2602 12.599 10.5156 12.363 10.8519C12.1269 11.1883 12.0002 11.5891 12 12V36C12 36.5304 12.2107 37.0391 12.5858 37.4142C12.9609 37.7893 13.4696 38 14 38C14.5304 38 15.0391 37.7893 15.4142 37.4142C15.7893 37.0391 16 36.5304 16 36Z" fill="#FFB91A"/>
</svg>
