<svg width="42" height="34" viewBox="0 0 42 34" fill="none" xmlns="http://www.w3.org/2000/svg">
<path d="M35 28.875V30.0625C35 32.03 33.433 33.625 31.5 33.625H3.5C1.56698 33.625 0 32.03 0 30.0625V11.0625C0 9.09496 1.56698 7.5 3.5 7.5H4.66667V22.9375C4.66667 26.2114 7.2835 28.875 10.5 28.875H35ZM42 22.9375V3.9375C42 1.96996 40.433 0.375 38.5 0.375H10.5C8.56698 0.375 7 1.96996 7 3.9375V22.9375C7 24.905 8.56698 26.5 10.5 26.5H38.5C40.433 26.5 42 24.905 42 22.9375ZM18.6667 7.5C18.6667 9.46754 17.0997 11.0625 15.1667 11.0625C13.2336 11.0625 11.6667 9.46754 11.6667 7.5C11.6667 5.53246 13.2336 3.9375 15.1667 3.9375C17.0997 3.9375 18.6667 5.53246 18.6667 7.5ZM11.6667 18.1875L15.7146 14.0672C16.0563 13.7195 16.6103 13.7195 16.9521 14.0672L19.8333 17L29.7146 6.94225C30.0563 6.59446 30.6103 6.59446 30.9521 6.94225L37.3333 13.4375V21.75H11.6667V18.1875Z" fill="#FFB91A"/>
</svg>
